HIERARCHY
ROOT Hips
{
	OFFSET 0.000000 0.000000 0.000000
	CHANNELS 6 Xposition Yposition Zposition Zrotation Yrotation Xrotation 
	JOINT LHipJoint
	{
		OFFSET 0.000000 0.000000 0.000000
		CHANNELS 3 Zrotation Yrotation Xrotation
		JOINT LeftUpLeg
		{
			OFFSET 1.363060 -1.794630 0.839290
			CHANNELS 3 Zrotation Yrotation Xrotation
			JOINT LeftLeg
			{
				OFFSET 2.448110 -6.726130 0.000000
				CHANNELS 3 Zrotation Yrotation Xrotation
				JOINT LeftFoot
				{
					OFFSET 2.562200 -7.039590 0.000000
					CHANNELS 3 Zrotation Yrotation Xrotation
					JOINT LeftToeBase
					{
						OFFSET 0.157640 -0.433110 2.322550
						CHANNELS 3 Zrotation Yrotation Xrotation
						End Site
						{
							OFFSET 0.000000 0.000000 0.000000
						}
					}
				}
			}
		}
	}
	JOINT RHipJoint
	{
		OFFSET 0.000000 0.000000 0.000000
		CHANNELS 3 Zrotation Yrotation Xrotation
		JOINT RightUpLeg
		{
			OFFSET -1.305520 -1.794630 0.839290
			CHANNELS 3 Zrotation Yrotation Xrotation
			JOINT RightLeg
			{
				OFFSET -2.542530 -6.985550 0.000000
				CHANNELS 3 Zrotation Yrotation Xrotation
				JOINT RightFoot
				{
					OFFSET -2.568260 -7.056230 0.000000
					CHANNELS 3 Zrotation Yrotation Xrotation
					JOINT RightToeBase
					{
						OFFSET -0.164730 -0.452590 2.363150
						CHANNELS 3 Zrotation Yrotation Xrotation
						End Site
						{
							OFFSET 0.000000 0.000000 0.000000
						}
					}
				}
			}
		}
	}
}
MOTION
Frames: 14
Frame Time: 0.008333
3.420481 16.961850 1.497746 6.634445 37.115010 9.787389 -11.917791 5.102124 -0.964282 -2.904605 18.201837 -5.182422 -0.644618 2.370913 36.852117 0.955315 1.851410 15.637272 0.273200 -0.000000 -89.035301 8.594335 -0.234083 -0.275406 15.328276 -11.864117 -29.817479 1.951144 -0.212827 20.952646 -4.452436 -16.935911 -15.098300 -178.846400 0.000000 -2.946399
3.462021 16.933111 1.597902 6.324472 36.621190 9.401873 -12.045231 5.040652 -1.062085 -2.251539 18.573215 -6.058909 -0.503153 2.494576 39.228114 1.040314 1.450243 17.140555 0.085100 0.000000 -88.028600 8.533426 -0.292399 -0.434989 15.716897 -12.068718 -30.070219 1.987758 -0.410373 22.810074 -4.356529 -16.336487 -15.917966 -178.564900 -0.000000 -4.084600
3.499259 16.900266 1.696154 6.017329 36.110221 9.009161 -12.157085 4.958089 -1.187899 -1.597642 18.966510 -6.976314 -0.372070 2.622378 41.695809 1.133532 1.150861 18.518722 -0.081300 -0.000001 -86.075800 8.485033 -0.339814 -0.595234 16.083067 -12.230188 -30.275678 2.012714 -0.599964 24.638346 -4.276098 -15.796297 -16.796429 -178.278400 0.000000 -5.146000
3.532274 16.862973 1.792725 5.717669 35.590079 8.612199 -12.251334 4.856188 -1.339297 -0.949933 19.371309 -7.925364 -0.251119 2.756917 44.231099 1.232505 1.045005 19.676217 -0.176700 0.000000 -83.317800 8.448876 -0.377165 -0.756526 16.428103 -12.361422 -30.427960 2.027746 -0.779522 26.419073 -4.211045 -15.317185 -17.722912 -177.989200 0.000000 -6.110201
3.561285 16.821186 1.887883 5.430454 35.068907 8.217065 -12.326983 4.737500 -1.512177 -0.319016 19.773468 -8.903772 -0.137647 2.901289 46.815376 1.334578 1.220908 20.517780 -0.149800 -0.000000 -79.782300 8.424248 -0.405560 -0.918067 16.753135 -12.472033 -30.528675 2.034761 -0.947920 28.140704 -4.160783 -14.897442 -18.688305 -177.698601 0.000000 -6.970200
3.586710 16.775056 1.981833 5.158677 34.553767 7.829063 -12.384634 4.604379 -1.700726 0.284026 20.156254 -9.909921 -0.027185 3.057151 49.421395 1.439655 1.754832 20.983117 0.042400 -0.000000 -75.826200 8.409843 -0.426349 -1.080293 17.060653 -12.575020 -30.586111 2.036260 -1.105485 29.801855 -4.122957 -14.526856 -19.685521 -177.407900 0.000000 -7.731900
3.609063 16.725051 2.074713 4.904213 34.049712 7.455464 -12.426042 4.459110 -1.898381 0.847537 20.501756 -10.949429 0.084772 3.225624 52.031350 1.547840 2.681365 21.017766 0.414800 0.000000 -71.463700 8.403780 -0.441004 -1.241629 17.353423 -12.673534 -30.611669 2.034003 -1.252712 31.403088 -4.096101 -14.198442 -20.707263 -177.118500 0.000001 -8.409200
3.628884 16.671837 2.166572 4.667739 33.558504 7.102654 -12.453625 4.303115 -2.097899 1.359746 20.790551 -12.024267 0.201726 3.405210 54.613990 1.662523 4.005702 20.614701 0.955400 0.000000 -67.059000 8.404149 -0.450638 -1.401249 17.633922 -12.768223 -30.617377 2.029421 -1.390681 32.949030 -4.078116 -13.902777 -21.745888 -176.832301 -0.000000 -9.021000
3.646797 16.616268 2.257382 4.447835 33.078255 6.777107 -12.470328 4.137575 -2.292257 1.810522 21.004963 -13.138517 0.325201 3.593403 57.141618 1.786984 5.686426 19.782970 1.618700 0.000000 -62.769700 8.408646 -0.456351 -1.556713 17.904913 -12.850149 -30.614402 2.023246 -1.520216 34.442579 -4.067865 -13.634534 -22.792881 -176.551600 0.000000 -9.587100
3.663415 16.559408 2.347010 4.241668 32.604054 6.484521 -12.479489 3.963824 -2.475639 2.193905 21.132658 -14.296975 0.454684 3.787506 59.590975 1.922580 7.637788 18.536074 2.330500 -0.000000 -58.477600 8.414567 -0.459384 -1.704459 18.170113 -12.902911 -30.610239 2.015569 -1.641771 35.883521 -4.065016 -13.392470 -23.838095 -176.278100 0.000000 -10.125100
3.679282 16.502314 2.435310 4.046641 32.127492 6.229553 -12.483726 3.782695 -2.642358 2.505681 21.161620 -15.497328 0.587794 3.982702 61.926107 2.071630 9.761927 16.939495 3.012701 -0.000000 -54.436600 8.419970 -0.460301 -1.841643 18.431587 -12.908854 -30.609249 2.006168 -1.755777 37.270194 -4.069055 -13.175560 -24.870176 -176.013999 0.000000 -10.647300
3.694854 16.446128 2.522121 3.859168 31.637872 6.015819 -12.485449 3.595661 -2.788339 2.746585 21.086580 -16.736931 0.721012 4.174871 64.119638 2.232099 11.937623 15.054361 3.585000 0.000000 -50.584200 8.422863 -0.459888 -1.964535 18.691826 -12.846426 -30.610973 1.994530 -1.862186 38.596540 -4.080090 -12.986135 -25.876898 -175.760700 -0.000000 -11.160400
3.710453 16.391891 2.607289 3.678510 31.123328 5.846920 -12.485344 3.404191 -2.911115 2.918427 20.906631 -18.008672 0.850139 4.359336 66.142734 2.399433 14.047047 12.962141 3.986000 -0.000000 -46.952600 8.422857 -0.458056 -2.069585 18.949282 -12.693855 -30.611124 1.979976 -1.960713 39.852982 -4.098413 -12.828086 -26.846545 -175.518700 0.000000 -11.663900
3.726522 16.340687 2.690775 3.497861 30.572437 5.720836 -12.486627 3.210403 -3.006897 3.035543 20.625368 -19.304611 0.970835 4.532468 67.972270 2.565086 15.973999 10.743939 4.175900 -0.000000 -43.480300 8.416151 -0.457032 -2.154996 19.212866 -12.444135 -30.604081 1.962985 -2.050792 41.028506 -4.122494 -12.697656 -27.763586 -175.291199 0.000000 -12.153800
